# xmcd CD database file
#
# Track frame offsets:
#	150
#	35848
#	57800
#	75615
#	105347
#	142946
#	165085
#	189768
#	215426
#	248214
#	267941
#
# Disc length: 3807 seconds
#
# Revision: 0
# Processed by: cddbd v1.5.2PL0 Copyright (c) Steve Scherf et al.
# Submitted via: CDex 1.51
#
DISCID=850edd0b
DTITLE=Tom Waits - Live In Florence - 7/24/99 - Disc 2
DYEAR=1900
DGENRE=Blues
TTITLE0=16 Shells From A Thirty-Ought Six
TTITLE1=Shore Leave
TTITLE2=Strange Weather
TTITLE3=Who Are You
TTITLE4=Fillipino Box Spring Hog
TTITLE5=In The Colosseum
TTITLE6=Temptation
TTITLE7=Cold Water
TTITLE8=Big In Japan
TTITLE9=The Heart Of Saturday Night
TTITLE10=House Where Nobody Lives
EXTD=
EXTT0=
EXTT1=
EXTT2=
EXTT3=
EXTT4=
EXTT5=
EXTT6=
EXTT7=
EXTT8=
EXTT9=
EXTT10=
PLAYORDER=
